<?xml version="1.0" encoding="UTF-8"?>
<svg id="_图层_1" data-name="图层 1" xmlns="http://www.w3.org/2000/svg" viewBox="0 0 515.15 418.99">
  <defs>
    <style>
      .cls-1 {
        fill: #009fe8;
      }
    </style>
  </defs>
  <path class="cls-1" d="M391.87,308.31c-43.59,25.29-87.24,50.49-130.83,75.78-2.52,1.46-4.36,1.63-6.99.11-48.33-28.07-96.71-56.05-145.15-83.93-3.01-1.73-4.1-3.64-4.1-7.11.11-55.61.11-111.22,0-166.84,0-3.65,1.16-5.62,4.3-7.43,48.19-27.74,96.32-55.58,144.41-83.5,2.83-1.64,4.87-1.8,7.79-.1,35.01,20.4,70.1,40.64,105.17,60.94,1.43.83,2.81,1.76,4.84,3.04-31.87,22.68-63.11,44.92-94.36,67.15.17.26.34.52.51.78,44.76-25.96,89.52-51.92,134.7-78.12-1.44-.96-2.45-1.72-3.53-2.35-49.37-28.57-98.76-57.12-148.1-85.74-2.09-1.21-3.65-1.42-5.87-.14-58.67,34.02-117.39,67.95-176.03,102.02-1.48.86-2.96,3.25-2.96,4.92-.15,67.83-.15,135.65,0,203.48,0,1.71,1.37,4.16,2.83,5.01,58.76,34.16,117.59,68.18,176.48,102.11,1.27.73,3.68.78,4.93.06,55.69-32.08,111.31-64.27,166.92-96.47-11.56-4.77-23.19-9.42-34.93-13.69Z"/>
  <path class="cls-1" d="M66.45,175.2v40.54c-22.1-5.52-43.85-10.94-66.45-16.58,3.82-4.5,7.73-8.14,10.44-12.51,6.14-9.92,14.48-12.99,25.94-11.67,9.76,1.12,19.74.23,30.07.23Z"/>
  <path class="cls-1" d="M503.11,83.39c-5.49-1.44-11.35-2.27-17.01-2.16-28.04.54-54.65,6.9-79.03,21.16-43.02,25.17-85.96,50.49-128.99,75.65-1.99,1.16-4.53,2-6.79,1.96-28.02-.47-56.03-1.12-84.04-1.76-3.12-.07-6.24-.33-10.28-.54,1.66-2.2,2.76-3.82,4.04-5.29,2.58-2.97,3.65-6.21,1.87-9.92-1.87-3.92-5-6.19-9.4-6.57-5.49-.47-9.82,2.02-13.4,5.75-3.57,3.72-6.96,7.68-9.99,11.85-2.2,3.04-4.64,3.99-8.34,3.86-9.14-.31-18.29-.1-27.51-.1-.12.36-.38.76-.38,1.16-.04,15.52-.13,31.04.07,46.56.02,1.16,1.95,2.97,3.3,3.33,11.5,3.07,23.07,5.87,34.62,8.76,11.75,2.94,23.51,5.9,36.36,9.13-18.26,13.86-35.67,27.08-53.27,40.44-6.92-7.85-13.46-15.25-19.99-22.65-.39.09-.79.19-1.18.28,0,8.14.13,16.28-.07,24.41-.07,2.99.97,4.66,3.54,6.12,15.11,8.59,30.19,17.24,45.14,26.12,3.06,1.81,5.25,1.59,8.18-.12,34.64-20.15,69.37-40.13,104.02-60.27,3.18-1.85,5.98-2.33,9.65-1.37,43.89,11.42,164.43,46.06,179.01,52.02-.28-4.02-.97-7.61-.69-11.12.63-7.95-3.81-11.71-9.57-16.92-1.89-1.7-4.27-2.8-6.35-4.32-12.61-10.33-24.65-20.18-37-30.3,2.49-2.32,4.63-4.19,6.63-6.2,4.6-4.61,3.52-11.77-2.18-14.94-3.96-2.2-7.79-1.51-11.47.6-2.87,1.64-5.53,3.65-8.43,5.2-1.03.55-2.98.82-3.73.23-9.8-7.68-19.47-15.54-29.55-23.67,1.88-1.16,3.31-2.06,4.76-2.94,26.7-16.09,53.45-32.09,80.08-48.29,17.93-10.91,35.59-22.31,51.06-36.62,5.44-5.03,10.57-10.66,14.68-16.79,7.03-10.52,3.82-18.53-8.37-21.72Z"/>
  <path class="cls-1" d="M410,216.95v-16.6c-11.36,3.39-22.07,6.59-32.79,9.8-.09-.23-.19-.45-.28-.68,20.49-12.05,40.99-24.1,62.06-36.49v88.1c-5.39-4.39-10.4-8.47-15.7-12.79,4.84-6.14,6.41-12.68,3.23-19.81-3.09-6.93-8.97-10.13-16.51-11.53Z"/>
</svg>